<?xml version="1.0" encoding="UTF-8" standalone="no"?>
<!DOCTYPE svg PUBLIC "-//W3C//DTD SVG 1.1//EN" "http://www.w3.org/Graphics/SVG/1.1/DTD/svg11.dtd">
<svg width="100%" height="100%" viewBox="0 0 1000 1000" version="1.1" xmlns="http://www.w3.org/2000/svg" xmlns:xlink="http://www.w3.org/1999/xlink" xml:space="preserve" xmlns:serif="http://www.serif.com/" style="fill-rule:evenodd;clip-rule:evenodd;stroke-linejoin:round;stroke-miterlimit:2;">
    <g transform="matrix(0.222652,0,0,0.222652,500,500)">
        <g transform="matrix(1,0,0,1,-1479.5,-968.5)">
            <g transform="matrix(4.166667,0,0,4.166667,-1007,-2052)">
                <path d="M356.451,671.227L504.7,671.551L710.892,776.473L710.904,800.227L644.322,797.992L538.192,746.699L528.169,768.253L642.069,823.164L734.123,823.556L734.085,777.984L905.699,698.682L933.63,733.538L674.727,940.603L442.832,824.634L356.392,824.254L356.451,671.227Z" style="fill:rgb(254,254,254);fill-rule:nonzero;"/>
            </g>
            <g transform="matrix(3.972817,0,0,3.972816,-907.229333,-1928.811062)">
                <path d="M731.295,503.187L943.47,553.438L731.295,627L508.898,553.438L731.295,503.187Z" style="fill:rgb(254,254,254);fill-rule:nonzero;"/>
            </g>
            <g transform="matrix(4.166667,0,0,4.166667,-1048,-1933.912578)">
                <path d="M508.963,553.438L731.055,627L943.47,553.615L943.47,621.855C935.797,625.853 731.055,718.397 731.055,718.397C683.418,694.493 508.943,613 508.943,613C508.943,613 508.83,575.222 508.963,553.438Z" style="fill:rgb(254,254,254);fill-rule:nonzero;"/>
            </g>
            <g transform="matrix(4.248024,0,0,3.800458,-972.06362,-1783.534522)">
                <path d="M250.368,629.014L367.112,628.947L367.045,863.521L250.371,863.735L250.368,629.014Z" style="fill:rgb(254,254,254);fill-rule:nonzero;"/>
            </g>
        </g>
    </g>
</svg>
