<?xml version="1.0" encoding="UTF-8" standalone="no"?><!DOCTYPE svg PUBLIC "-//W3C//DTD SVG 1.1//EN" "http://www.w3.org/Graphics/SVG/1.1/DTD/svg11.dtd"><svg width="100%" height="100%" viewBox="0 0 1000 1000" version="1.1" xmlns="http://www.w3.org/2000/svg" xmlns:xlink="http://www.w3.org/1999/xlink" xml:space="preserve" xmlns:serif="http://www.serif.com/" style="fill-rule:evenodd;clip-rule:evenodd;stroke-linejoin:round;stroke-miterlimit:2;"><path d="M770.073,0c60.98,-0 119.463,24.224 162.583,67.344c43.12,43.12 67.344,101.603 67.344,162.583l0,540.146c0,60.98 -24.224,119.463 -67.344,162.583c-43.12,43.12 -101.603,67.344 -162.583,67.344l-540.146,0c-60.98,0 -119.463,-24.224 -162.583,-67.344c-43.12,-43.12 -67.344,-101.603 -67.344,-162.583l0,-540.146c-0,-60.98 24.224,-119.463 67.344,-162.583c43.12,-43.12 101.603,-67.344 162.583,-67.344l540.146,0Z" style="fill:#2589c8;"/><g><g><g><path d="M254.812,445.251l151.153,0.33l210.231,106.977l0.012,24.219l-67.886,-2.279l-108.209,-52.298l-10.219,21.976l116.131,55.987l93.857,0.4l-0.039,-46.465l174.975,-80.855l28.478,35.539l-263.974,211.121l-236.437,-118.24l-88.133,-0.387l0.06,-156.024Z" style="fill:#fefefe;fill-rule:nonzero;"/></g><g><path d="M626.723,280.195l206.266,48.852l-206.266,71.513l-216.204,-71.513l216.204,-48.852Z" style="fill:#fefefe;fill-rule:nonzero;"/></g><g><path d="M400.278,354.051l226.442,75.003l216.576,-74.822l0,69.577c-7.823,4.076 -216.576,98.433 -216.576,98.433c-48.57,-24.372 -226.463,-107.461 -226.463,-107.461c0,0 -0.115,-38.518 0.02,-60.729Z" style="fill:#fefefe;fill-rule:nonzero;"/></g><g><path d="M160.184,411.537l121.355,-0.062l-0.07,218.148l-121.282,0.199l-0.003,-218.285Z" style="fill:#fefefe;fill-rule:nonzero;"/></g></g></g></svg>